<?xml version="1.0" encoding="UTF-8"?>
<svg version="1.1" xmlns="http://www.w3.org/2000/svg" width="374" height="356">
<path d="M0 0 C123.42 0 246.84 0 374 0 C374 117.48 374 234.96 374 356 C250.58 356 127.16 356 0 356 C0 238.52 0 121.04 0 0 Z " fill="#FCFCFD" transform="translate(0,0)"/>
<path d="M0 0 C1.10185638 -0.0071553 2.20371277 -0.01431061 3.33895874 -0.02168274 C5.1607666 -0.02571609 5.1607666 -0.02571609 7.01937866 -0.02983093 C8.29429169 -0.03640213 9.56920471 -0.04297333 10.88275146 -0.04974365 C15.11887348 -0.07079735 19.3549959 -0.08115025 23.59115601 -0.09111023 C25.05022577 -0.09515791 26.50929534 -0.09927484 27.96836472 -0.10346031 C34.82624451 -0.12251833 41.68411353 -0.13674559 48.54201472 -0.14507228 C56.45113208 -0.15483419 64.35996878 -0.18112348 72.2689873 -0.22157317 C78.38545261 -0.2517779 84.50183771 -0.26654545 90.61837614 -0.26985329 C94.26955128 -0.27219972 97.92042682 -0.28110574 101.57152176 -0.30631447 C105.65067297 -0.33402208 109.72920171 -0.32975081 113.80844116 -0.32279968 C115.01083435 -0.33560974 116.21322754 -0.3484198 117.45205688 -0.36161804 C124.37818407 -0.31863018 128.92956594 0.3824429 134.80209351 4.14717102 C138.75804858 8.55768506 139.39860175 12.39952482 139.33334351 18.14326477 C139.33717041 18.89503494 139.34099731 19.64680511 139.34494019 20.4213562 C139.34764973 22.00388435 139.34035573 23.58645801 139.32357788 25.16889954 C139.30218133 27.57479556 139.32339317 29.97769595 139.34896851 32.38349915 C139.34632447 33.92842754 139.34119792 35.47335408 139.33334351 37.01826477 C139.34144043 37.72889572 139.34953735 38.43952667 139.35787964 39.17169189 C139.25594134 44.67607483 138.19764624 47.91843925 134.80209351 52.14717102 C131.91176871 52.83384978 130.09931232 53.01896445 127.22006226 52.90888977 C126.12145622 52.91309685 126.12145622 52.91309685 125.00065613 52.91738892 C122.66213691 52.92266142 120.32759139 52.88213939 117.98959351 52.83467102 C115.66291638 52.80304347 113.33756605 52.78190891 111.01066589 52.78408813 C109.56576018 52.7839595 108.12067027 52.76414748 106.67640686 52.72106934 C101.18702739 52.6974159 98.23544113 54.1643641 93.80209351 57.14717102 C89.41946378 61.75134027 88.42322694 67.0031171 88.17709351 73.20967102 C88.44889503 80.61226537 90.46112858 85.0150164 95.80209351 90.02217102 C100.30138151 92.55302052 104.03300275 93.41440067 109.19662476 93.56123352 C110.39867554 93.5999054 111.60072632 93.63857727 112.83920288 93.67842102 C114.08508179 93.70935852 115.33096069 93.74029602 116.61459351 93.77217102 C117.87980835 93.8108429 119.14502319 93.84951477 120.44857788 93.88935852 C123.56627202 93.98347759 126.68396264 94.06911463 129.80209351 94.14717102 C130.05805298 95.11920471 130.31401245 96.0912384 130.57772827 97.09272766 C132.11465975 102.87298909 133.68110098 108.29255659 136.55209351 113.58467102 C138.70034278 117.66767897 139.68599546 120.46249066 138.80209351 125.14717102 C136.40300531 130.56520751 132.81915259 133.10165522 127.47864532 135.34064102 C122.42192219 136.86439217 117.35121254 136.68394044 112.10971069 136.63301086 C110.24710098 136.6387059 110.24710098 136.6387059 108.34686279 136.64451599 C104.96663224 136.65062423 101.58739426 136.63899716 98.20728207 136.61860991 C94.65956752 136.60093895 91.11186702 136.60456584 87.56411743 136.60533142 C81.61275363 136.60346373 75.66159493 136.58616728 69.71029663 136.55879211 C62.83633748 136.52728911 55.9626022 136.51679822 49.08857608 136.51826322 C41.75392445 136.51961507 34.41935869 136.50573456 27.08473301 136.48737001 C24.97673019 136.4831141 22.86874128 136.48168861 20.76073456 136.48089218 C16.83270897 136.47850601 12.90486851 136.45906745 8.97689819 136.43769836 C7.81211945 136.43860474 6.6473407 136.43951111 5.44726562 136.44044495 C4.37638702 136.43191498 3.30550842 136.42338501 2.20217896 136.41459656 C1.27456127 136.41124487 0.34694359 136.40789318 -0.60878372 136.40443993 C-6.39340952 135.82964897 -9.32648003 133.33249693 -13.19790649 129.14717102 C-13.85790649 128.48717102 -14.51790649 127.82717102 -15.19790649 127.14717102 C-16.17533718 124.23800793 -16.32709128 121.54676585 -16.33834839 118.49253845 C-16.34405853 117.56173965 -16.34976868 116.63094086 -16.35565186 115.67193604 C-16.35676971 114.65781143 -16.35788757 113.64368683 -16.35903931 112.59883118 C-16.36648666 110.98844215 -16.36648666 110.98844215 -16.37408447 109.34552002 C-16.38869488 105.79241801 -16.39550579 102.23936064 -16.40103149 98.68623352 C-16.40678328 96.21767678 -16.41254101 93.74912006 -16.41830444 91.28056335 C-16.42881083 86.10393567 -16.43465607 80.9273235 -16.43814087 75.75068665 C-16.44362888 69.11720775 -16.46766522 62.48393377 -16.49611282 55.85051918 C-16.51473347 50.75130106 -16.51994448 45.6521324 -16.52147675 40.55288315 C-16.52450441 38.1072566 -16.53253671 35.66163095 -16.54566193 33.21603775 C-16.56271213 29.79529954 -16.56084455 26.37506337 -16.55435181 22.95429993 C-16.56356659 21.94422379 -16.57278137 20.93414764 -16.58227539 19.89346313 C-16.54609254 13.80941086 -16.00621756 9.15556532 -11.66275024 4.50263977 C-7.37365691 1.22274487 -5.35367067 0.02380286 0 0 Z " fill="#254F72" transform="translate(85.19790649414063,176.8528289794922)"/>
<path d="M0 0 C0.85142578 -0.01224609 1.70285156 -0.02449219 2.58007812 -0.03710938 C11.81233609 -0.05820364 19.27000028 1.80463677 27.4375 6.0625 C28.118125 6.40152344 28.79875 6.74054688 29.5 7.08984375 C33.41682587 9.08621043 36.93725559 11.17661467 40.1875 14.1875 C40.1875 14.8475 40.1875 15.5075 40.1875 16.1875 C41.6725 16.6825 41.6725 16.6825 43.1875 17.1875 C47.23854439 21.61664187 50.45990576 26.85732625 53.1875 32.1875 C53.538125 32.86425781 53.88875 33.54101562 54.25 34.23828125 C60.88825605 47.97849506 60.94659291 63.84894538 56.1875 78.1875 C53.13258113 86.63265349 48.2082594 94.52165924 42.1875 101.1875 C41.5275 101.1875 40.8675 101.1875 40.1875 101.1875 C40.1875 101.8475 40.1875 102.5075 40.1875 103.1875 C26.69545072 115.24951641 10.64748421 117.90895665 -6.69921875 117.31494141 C-22.01081874 116.39157551 -35.7855024 107.24252558 -45.8125 96.1875 C-56.57112977 82.06315062 -60.08351812 67.70489822 -58.8125 50.1875 C-56.40529023 32.87177258 -46.32301419 19.71062958 -32.8125 9.1875 C-22.76060868 1.83880655 -12.23574997 0.00913798 0 0 Z " fill="#F4D55C" transform="translate(279.8125,198.8125)"/>
<path d="M0 0 C0.77980225 -0.01369629 1.55960449 -0.02739258 2.36303711 -0.04150391 C4.5078125 -0.0234375 4.5078125 -0.0234375 7.875 0.375 C10.42772599 4.20408899 9.95843845 7.04785865 9.625 11.4375 C9.5734375 12.20610352 9.521875 12.97470703 9.46875 13.76660156 C9.11122774 18.58299524 8.45129172 23.19455232 7.3359375 27.8984375 C6.56223028 32.05547457 6.52592828 36.27179679 6.4140625 40.4921875 C5.875 43.375 5.875 43.375 4.1484375 45.8203125 C1.875 47.375 1.875 47.375 -0.54296875 47.41015625 C-3.8393832 46.08859826 -5.86321365 44.24949108 -8.4375 41.8125 C-9.32050781 40.98621094 -10.20351563 40.15992188 -11.11328125 39.30859375 C-11.77714844 38.67050781 -12.44101562 38.03242187 -13.125 37.375 C-16.61154476 38.8591373 -18.76691072 40.83714052 -21.375 43.5625 C-24.22414013 46.48158629 -27.08870846 49.28488554 -30.1875 51.9375 C-33.6801343 54.93217456 -36.89853883 58.12937537 -40.125 61.40625 C-42.67977763 63.92110923 -45.37889677 66.23653617 -48.1015625 68.56640625 C-51.03720468 71.19034897 -53.74622333 74.02118465 -56.4609375 76.87109375 C-58.125 78.375 -58.125 78.375 -60.125 78.375 C-60.125 79.035 -60.125 79.695 -60.125 80.375 C-61.3828125 81.609375 -61.3828125 81.609375 -63.25 83.125 C-67.43433821 86.66903022 -71.27454985 90.47844281 -75.125 94.375 C-76.92687757 96.17925471 -78.73104969 97.9811794 -80.53613281 99.78222656 C-81.87470133 101.12408597 -83.20056943 102.4785973 -84.5234375 103.8359375 C-87.44338367 106.66355336 -89.8856515 108.80356271 -94 109.375 C-99.05287036 108.9012934 -102.0997562 105.25338659 -105.57421875 101.86328125 C-107.89839757 99.59605015 -110.26416467 97.56989516 -112.8125 95.5625 C-113.61816406 94.92699219 -114.42382812 94.29148437 -115.25390625 93.63671875 C-116.67509766 92.51716797 -116.67509766 92.51716797 -118.125 91.375 C-120.83639201 89.21215148 -123.54305844 87.04341437 -126.25 84.875 C-127.56502775 83.82282115 -128.88012572 82.77073005 -130.1953125 81.71875 C-131.16210938 80.9453125 -132.12890625 80.171875 -133.125 79.375 C-136.37707092 80.79238489 -138.43861067 82.50026412 -140.875 85.0625 C-143.40413056 87.71383645 -146.01860492 90.16693125 -148.796875 92.55078125 C-153.64665268 96.75688779 -158.12406975 101.30182367 -162.625 105.875 C-165.02286205 108.31135101 -167.42512252 110.73851515 -169.8671875 113.13061523 C-171.29231427 114.54726645 -172.67940577 116.00424192 -174.0078125 117.51196289 C-178.03732906 121.74670616 -180.94405668 122.82096883 -186.8125 123.05859375 C-189.25094359 123.01246103 -191.68893022 122.92954454 -194.125 122.8125 C-195.37667969 122.78091797 -196.62835938 122.74933594 -197.91796875 122.71679688 C-200.98943499 122.6347348 -204.05596763 122.51997609 -207.125 122.375 C-203.66108927 118.26954229 -200.15951334 114.25463846 -196.375 110.4375 C-195.61703125 109.66535156 -194.8590625 108.89320313 -194.078125 108.09765625 C-192.125 106.375 -192.125 106.375 -190.125 106.375 C-190.125 105.715 -190.125 105.055 -190.125 104.375 C-188.68701172 102.96264648 -188.68701172 102.96264648 -186.6796875 101.30859375 C-181.09704453 96.56371628 -176.05782267 91.32411361 -170.953125 86.07617188 C-170.22867188 85.34076172 -169.50421875 84.60535156 -168.7578125 83.84765625 C-168.10699707 83.18000244 -167.45618164 82.51234863 -166.78564453 81.82446289 C-165.125 80.375 -165.125 80.375 -163.125 80.375 C-162.63 78.89 -162.63 78.89 -162.125 77.375 C-161.465 77.375 -160.805 77.375 -160.125 77.375 C-159.63 75.89 -159.63 75.89 -159.125 74.375 C-157.69921875 72.97265625 -157.69921875 72.97265625 -155.8125 71.4375 C-151.33596208 67.65965947 -147.25214088 63.56141326 -143.1628418 59.37524414 C-138.50239176 54.63736034 -138.50239176 54.63736034 -134.5 53.875 C-130.19225329 54.5131847 -128.68595091 56.1228781 -125.58203125 59.0546875 C-122.5778257 61.8917274 -119.4554523 64.56874824 -116.3125 67.25 C-115.7134082 67.76385254 -115.11431641 68.27770508 -114.49707031 68.80712891 C-109.80294228 72.82506994 -105.04131605 76.75028319 -100.234375 80.6328125 C-98.125 82.375 -98.125 82.375 -96.125 84.375 C-91.29257973 84.25619116 -88.82099478 81.58463896 -85.66796875 78.2734375 C-85.1613118 77.75874908 -84.65465485 77.24406067 -84.13264465 76.71377563 C-82.51617898 75.06839928 -80.91390844 73.41002303 -79.3125 71.75 C-77.20613241 69.58691142 -75.09426845 67.42926183 -72.98046875 65.2734375 C-72.46402802 64.74526932 -71.94758728 64.21710114 -71.41549683 63.67292786 C-68.79728091 61.01119858 -66.15006437 58.44753903 -63.30078125 56.03515625 C-56.51876529 50.26951871 -50.39413917 43.74707046 -44.125 37.4375 C-42.76455682 36.07203255 -41.40388169 34.70679614 -40.04296875 33.34179688 C-36.7342969 30.02219114 -33.42878678 26.69946727 -30.125 23.375 C-32.34382453 18.50405159 -35.98448902 16.00548085 -40.10546875 12.69140625 C-42.125 10.375 -42.125 10.375 -42.05078125 7.71484375 C-41.125 5.375 -41.125 5.375 -39.125 3.375 C-36.62915039 2.87255859 -36.62915039 2.87255859 -33.47265625 2.5234375 C-32.31169434 2.39404785 -31.15073242 2.2646582 -29.95458984 2.13134766 C-28.7114502 2.00550293 -27.46831055 1.8796582 -26.1875 1.75 C-24.9288916 1.62028809 -23.6702832 1.49057617 -22.37353516 1.35693359 C-14.91758044 0.63177191 -7.49256191 0.06685145 0 0 Z " fill="#265074" transform="translate(305.125,47.625)"/>
<path d="M0 0 C0.85142578 -0.01224609 1.70285156 -0.02449219 2.58007812 -0.03710938 C11.81233609 -0.05820364 19.27000028 1.80463677 27.4375 6.0625 C28.118125 6.40152344 28.79875 6.74054688 29.5 7.08984375 C33.41682587 9.08621043 36.93725559 11.17661467 40.1875 14.1875 C40.1875 14.8475 40.1875 15.5075 40.1875 16.1875 C41.6725 16.6825 41.6725 16.6825 43.1875 17.1875 C47.23854439 21.61664187 50.45990576 26.85732625 53.1875 32.1875 C53.538125 32.86425781 53.88875 33.54101562 54.25 34.23828125 C60.88825605 47.97849506 60.94659291 63.84894538 56.1875 78.1875 C53.13258113 86.63265349 48.2082594 94.52165924 42.1875 101.1875 C41.5275 101.1875 40.8675 101.1875 40.1875 101.1875 C40.1875 101.8475 40.1875 102.5075 40.1875 103.1875 C26.69545072 115.24951641 10.64748421 117.90895665 -6.69921875 117.31494141 C-22.01081874 116.39157551 -35.7855024 107.24252558 -45.8125 96.1875 C-56.57112977 82.06315062 -60.08351812 67.70489822 -58.8125 50.1875 C-56.40529023 32.87177258 -46.32301419 19.71062958 -32.8125 9.1875 C-22.76060868 1.83880655 -12.23574997 0.00913798 0 0 Z M-23.8125 15.1875 C-24.75222656 15.74566406 -25.69195312 16.30382812 -26.66015625 16.87890625 C-38.21201093 24.49010074 -45.93394674 35.63314726 -48.8125 49.1875 C-50.41852508 64.12011613 -47.99103465 76.78540395 -38.76953125 88.86328125 C-29.94514041 99.15580083 -20.3731494 105.54421793 -6.8125 107.1875 C8.36745502 108.21865507 21.52118035 105.21106408 33.37109375 95.375 C42.38373125 86.92458752 47.9546374 76.2691378 48.65625 63.85546875 C48.69030934 62.02893366 48.70021859 60.20180834 48.6875 58.375 C48.67891968 56.93314331 48.67891968 56.93314331 48.67016602 55.4621582 C48.29949169 40.63892941 41.9480833 30.61768372 31.5 20.4375 C19.67534336 10.09544557 5.65583242 9.32737539 -9.31201172 9.96972656 C-14.8083795 10.44841823 -19.1497414 12.35381758 -23.8125 15.1875 Z " fill="#284F72" transform="translate(279.8125,198.8125)"/>
<path d="M0 0 C0.72711182 0.00404846 1.45422363 0.00809692 2.20336914 0.01226807 C2.95046143 0.01035461 3.69755371 0.00844116 4.46728516 0.00646973 C6.04761085 0.00510809 7.62794772 0.00880307 9.20825195 0.01715088 C11.63135836 0.02785107 14.05372337 0.01725527 16.47680664 0.00445557 C18.01066245 0.00577717 19.54451779 0.00833957 21.07836914 0.01226807 C21.80548096 0.0082196 22.53259277 0.00417114 23.28173828 0 C28.41094553 0.04796946 28.41094553 0.04796946 30.64086914 2.27789307 C30.82886205 4.95852734 30.89268905 7.53498764 30.86791992 10.21588135 C30.86821198 11.03547333 30.86850403 11.85506531 30.86880493 12.69949341 C30.86740858 15.41583749 30.85183315 18.13190924 30.83618164 20.84820557 C30.83245259 22.72864634 30.82960511 24.60908906 30.8276062 26.48953247 C30.81996122 31.44455304 30.80030533 36.39945681 30.77819824 41.35443115 C30.75775842 46.40832946 30.74860848 51.46224661 30.73852539 56.51617432 C30.71706023 66.43679862 30.68291388 76.35733614 30.64086914 86.27789307 C29.21304377 85.81271663 27.78613826 85.34471624 26.35961914 84.87554932 C25.56491211 84.61523926 24.77020508 84.3549292 23.95141602 84.08673096 C21.64086914 83.27789307 21.64086914 83.27789307 18.14086914 81.71539307 C11.79167437 79.10768807 5.66903984 78.21434418 -1.16381836 77.72320557 C-2.90767822 77.59583008 -2.90767822 77.59583008 -4.68676758 77.46588135 C-5.56864746 77.40384521 -6.45052734 77.34180908 -7.35913086 77.27789307 C-7.4054075 67.53366927 -7.44097622 57.78947147 -7.4627552 48.04516029 C-7.47320637 43.52081047 -7.48738976 38.99653565 -7.51000977 34.472229 C-7.53169079 30.10857783 -7.54368944 25.74499894 -7.54888535 21.38129807 C-7.55258965 19.71386959 -7.55982293 18.04644521 -7.57059097 16.37904739 C-7.58504306 14.04918012 -7.58711147 11.71961413 -7.58618164 9.38970947 C-7.59337219 8.69559464 -7.60056274 8.0014798 -7.60797119 7.28633118 C-7.58110086 1.09183418 -6.11396473 0.05717913 0 0 Z " fill="#61AF92" transform="translate(286.359130859375,111.72210693359375)"/>
<path d="M0 0 C1.96827759 0.01232666 1.96827759 0.01232666 3.97631836 0.02490234 C4.67760361 0.02581879 5.37888885 0.02673523 6.10142517 0.02767944 C7.58168316 0.03371429 9.06192901 0.04945724 10.54199219 0.07421875 C12.81157226 0.11076593 15.07952144 0.11523788 17.34936523 0.11474609 C28.45849997 0.1906777 28.45849997 0.1906777 30.75366211 2.48583984 C30.92905647 5.42680721 30.98498586 8.27237333 30.94897461 11.21240234 C30.94614471 12.0752182 30.94331482 12.93803406 30.94039917 13.82699585 C30.92918544 16.58841704 30.90407895 19.34951634 30.87866211 22.11083984 C30.86863384 23.98062683 30.85950772 25.8504189 30.85131836 27.72021484 C30.82924223 32.30888093 30.79470445 36.89730577 30.75366211 41.48583984 C29.13427734 41.97721436 29.13427734 41.97721436 27.48217773 42.47851562 C26.04135825 42.9208519 24.60060664 43.36340926 23.15991211 43.80615234 C22.45125 44.02053955 21.74258789 44.23492676 21.01245117 44.45581055 C11.56105692 47.37270636 3.37913031 51.27887026 -3.82055664 58.16552734 C-5.24633789 59.48583984 -5.24633789 59.48583984 -6.24633789 59.48583984 C-6.32233859 51.72630072 -6.37491707 43.96685742 -6.41113281 36.20703125 C-6.42622879 33.56669528 -6.44670743 30.92638442 -6.47265625 28.28613281 C-6.5090028 24.49326382 -6.52605634 20.70072607 -6.53930664 16.90771484 C-6.5547905 15.72530212 -6.57027435 14.5428894 -6.58622742 13.324646 C-6.58645401 12.22380676 -6.5866806 11.12296753 -6.58691406 9.98876953 C-6.5935759 9.02058289 -6.60023773 8.05239624 -6.60710144 7.05487061 C-5.97286509 2.53841462 -4.51380631 0.6755264 0 0 Z " fill="#61AF92" transform="translate(237.246337890625,148.51416015625)"/>
<path d="M0 0 C2.64 0 5.28 0 8 0 C7.979375 0.9075 7.95875 1.815 7.9375 2.75 C8.62658473 6.0642859 8.62658473 6.0642859 10.9296875 7.1484375 C12.53405856 7.80596662 14.14500671 8.44764614 15.76171875 9.07421875 C18.59604772 10.24653283 20.29153685 11.43730527 22 14 C21.9375 16.625 21.9375 16.625 21 19 C17.75173326 21.16551116 16.76905843 21.55156953 13 21 C12.401875 20.360625 11.80375 19.72125 11.1875 19.0625 C8.10904476 16.15995649 5.15534661 15.88930429 1 16 C-1.4237259 16.78785353 -1.4237259 16.78785353 -3 18 C-3 19.98 -3 21.96 -3 24 C2.71133397 26.65118713 8.46061576 28.94199338 14.421875 30.97265625 C18.52065084 32.60595632 21.35871776 34.02702005 23.8125 37.75 C25.59864737 42.63840333 25.63942404 46.22382212 23.875 51.125 C20.68321576 56.01906917 16.62545644 59.327567 11 61 C10.01 61 9.02 61 8 61 C8 63.31 8 65.62 8 68 C5.36 68 2.72 68 0 68 C-0.495 65.03 -0.495 65.03 -1 62 C-1.66386719 61.82984375 -2.32773437 61.6596875 -3.01171875 61.484375 C-12.72757022 58.81783474 -12.72757022 58.81783474 -16 55 C-16.53312947 51.73458202 -16.59827089 49.94463824 -14.8125 47.125 C-12.19339779 45.49935035 -11.06930825 45.4543452 -8 46 C-6.68557659 46.79695567 -5.39561163 47.63490272 -4.125 48.5 C-0.28044447 51.05336518 2.31758618 51.72037136 7 51 C9.50098982 49.98009206 9.50098982 49.98009206 11 48 C11.33425735 45.37374861 11.33425735 45.37374861 11 43 C6.34018751 40.4908702 1.87096878 38.57569114 -3.1875 37 C-8.21407745 35.37729656 -12.29297034 33.88975735 -15.09375 29.1484375 C-16.64648103 25.46739412 -16.5461499 21.91862555 -16 18 C-13.57447325 13.1489465 -10.38164576 10.06715203 -6 7 C-2.625 6.1875 -2.625 6.1875 0 6 C0 4.02 0 2.04 0 0 Z " fill="#274F74" transform="translate(276,223)"/>
<path d="M0 0 C1.56488159 0.01123901 1.56488159 0.01123901 3.16137695 0.02270508 C4.47323975 0.05001709 5.78510254 0.0773291 7.13671875 0.10546875 C11.32359375 0.16734375 15.51046875 0.22921875 19.82421875 0.29296875 C19.16421875 9.20296875 18.50421875 18.11296875 17.82421875 27.29296875 C12.06984375 27.41671875 12.06984375 27.41671875 6.19921875 27.54296875 C5.00087402 27.57938477 3.8025293 27.61580078 2.56787109 27.65332031 C-3.65886897 27.71814951 -7.50906475 27.58634793 -12.17578125 23.29296875 C-15.22724561 18.81748768 -16.1263191 14.58429611 -15.17578125 9.29296875 C-11.70444611 2.47886645 -7.58395366 -0.11207813 0 0 Z " fill="#2A5174" transform="translate(196.17578125,235.70703125)"/>
<path d="M0 0 C0.66 0 1.32 0 2 0 C4.68370099 5.01456479 4.33103088 10.15418054 4.3125 15.6875 C4.33666992 17.10192383 4.33666992 17.10192383 4.36132812 18.54492188 C4.3703341 31.64861483 -0.37848743 42.22374892 -9.3125 51.8125 C-20.05785521 61.77160971 -33.07659393 65.68278102 -47.54296875 65.265625 C-54.04647829 64.76592031 -59.86987298 63.20055842 -66 61 C-66 60.01 -66 59.02 -66 58 C-65.44054687 58.144375 -64.88109375 58.28875 -64.3046875 58.4375 C-49.35681091 61.89810165 -35.83049991 60.36929156 -22.56640625 52.65234375 C-9.90500062 44.50047985 -4.07235185 32.98819642 -0.40234375 18.66796875 C0.14984213 15.00638667 0.10539231 11.3795381 0.0625 7.6875 C0.05798828 6.94693359 0.05347656 6.20636719 0.04882812 5.44335938 C0.03712175 3.62887101 0.01918898 1.81442466 0 0 Z " fill="#E4C356" transform="translate(324,241)"/>
<path d="M0 0 C0 0.33 0 0.66 0 1 C-1.03898437 0.97679687 -2.07796875 0.95359375 -3.1484375 0.9296875 C-19.17666749 0.66967656 -34.13352767 3.31964362 -46.1953125 14.94140625 C-57.17621532 27.46724129 -60.30903848 40.91361603 -62 57 C-62.66 57 -63.32 57 -64 57 C-67.29884078 47.10347766 -65.37935285 35.52508167 -61.55859375 26.09765625 C-59.25545369 21.52023753 -56.46478385 17.75553495 -53 14 C-52.236875 13.13375 -51.47375 12.2675 -50.6875 11.375 C-46.69552977 7.84721235 -42.51433399 4.82648211 -38 2 C-37.29617188 1.55914062 -36.59234375 1.11828125 -35.8671875 0.6640625 C-25.76555706 -4.44106256 -10.52272391 -3.59874279 0 0 Z " fill="#F1DA8A" transform="translate(296,211)"/>
<path d="M0 0 C3.5 0.1875 3.5 0.1875 7 1 C9 4 9 4 8.75 6.5625 C8 9 8 9 6 11 C3.0625 11.375 3.0625 11.375 0 11 C-1.9375 9.3125 -1.9375 9.3125 -3 7 C-2.75925978 3.62963689 -2.41201979 2.41201979 0 0 Z " fill="#F0D55C" transform="translate(192,245)"/>
<path d="M0 0 C0.33 0.66 0.66 1.32 1 2 C-2.72346836 6.42094803 -6.29521038 10.57833482 -11 14 C-11.66 13.67 -12.32 13.34 -13 13 C-8.71 8.71 -4.42 4.42 0 0 Z " fill="#365678" transform="translate(236,109)"/>
<path d="M0 0 C0.33 0.66 0.66 1.32 1 2 C-0.670625 2.309375 -0.670625 2.309375 -2.375 2.625 C-6.26599195 3.61628301 -6.26599195 3.61628301 -7.4375 7.125 C-7.623125 8.07375 -7.80875 9.0225 -8 10 C-8.66 9.67 -9.32 9.34 -10 9 C-10.3125 6.1875 -10.3125 6.1875 -10 3 C-6.75099315 0.21513699 -4.21468013 -0.3612583 0 0 Z " fill="#E2D25D" transform="translate(282,238)"/>
<path d="M0 0 C0.33 0 0.66 0 1 0 C1.33 1.65 1.66 3.3 2 5 C2.33 5 2.66 5 3 5 C3 8.96 3 12.92 3 17 C2.34 17 1.68 17 1 17 C-0.18681726 13.43954823 -0.09689832 10.56191663 -0.0625 6.8125 C-0.05347656 5.54019531 -0.04445312 4.26789063 -0.03515625 2.95703125 C-0.02355469 1.98121094 -0.01195312 1.00539062 0 0 Z " fill="#F6E68A" transform="translate(231,251)"/>
<path d="M0 0 C0 3 0 3 -2.625 5.91796875 C-3.74249406 7.01550756 -4.86785643 8.10507895 -6 9.1875 C-6.57234375 9.74630859 -7.1446875 10.30511719 -7.734375 10.88085938 C-9.14962788 12.26073093 -10.57397155 13.63126734 -12 15 C-12.33 14.01 -12.66 13.02 -13 12 C-12.31292969 11.38511719 -11.62585938 10.77023438 -10.91796875 10.13671875 C-10.01691406 9.32847656 -9.11585938 8.52023438 -8.1875 7.6875 C-7.29417969 6.88699219 -6.40085938 6.08648437 -5.48046875 5.26171875 C-3.60073214 3.54775419 -1.77407253 1.82122396 0 0 Z " fill="#24466B" transform="translate(250,96)"/>
<path d="M0 0 C0.78375 0.04125 1.5675 0.0825 2.375 0.125 C1.55 0.66125 0.725 1.1975 -0.125 1.75 C-2.96451208 3.92771869 -2.96451208 3.92771869 -2.9375 7.375 C-2.834375 8.2825 -2.73125 9.19 -2.625 10.125 C-4.1875 8.9375 -4.1875 8.9375 -5.625 7.125 C-5.3194111 2.94861841 -4.60880344 0.21946683 0 0 Z " fill="#DACD5D" transform="translate(194.625,244.875)"/>
<path d="M0 0 C0.66 0.66 1.32 1.32 2 2 C-0.31 4.31 -2.62 6.62 -5 9 C-5.66 8.34 -6.32 7.68 -7 7 C-4.69 4.69 -2.38 2.38 0 0 Z " fill="#365778" transform="translate(140,128)"/>
<path d="M0 0 C0.33 0.66 0.66 1.32 1 2 C0.67 2.66 0.34 3.32 0 4 C-2.0625 4.625 -2.0625 4.625 -4 5 C-4 4.34 -4 3.68 -4 3 C-5.32 2.34 -6.64 1.68 -8 1 C-5.07175348 0.02391783 -3.04386724 -0.08226668 0 0 Z " fill="#DACC82" transform="translate(273,209)"/>
<path d="M0 0 C0.99 1.485 0.99 1.485 2 3 C4.58380177 3.25030977 4.58380177 3.25030977 7 3 C7 3.99 7 4.98 7 6 C4.69 6 2.38 6 0 6 C0 4.02 0 2.04 0 0 Z " fill="#224476" transform="translate(276,285)"/>
</svg>
